<svg width="320" height="311" viewBox="0 0 320 311" fill="none" xmlns="http://www.w3.org/2000/svg">
<path opacity="0.2" fill-rule="evenodd" clip-rule="evenodd" d="M319.996 155.171C319.996 158.779 319.868 162.357 319.616 165.903V231.792V232.158V233.242V233.608V308.779V310.229H318.116H240.466H240.087H238.966H238.587H160.938H160.558H159.438H159.058H81.4083H81.0287H79.9083H79.5287H1.87947H0.37947V308.779V233.608V233.242V232.158V231.792V165.885C0.127871 162.345 0 158.772 0 155.171C0 151.569 0.127871 147.997 0.37947 144.457V79.6345V79.2684H0.378982V77.8181V2.64768V1.19738H1.87898H79.5282H81.0282V1.19783H81.4084H148.885C152.557 0.954829 156.263 0.831329 159.998 0.831329C163.734 0.831329 167.44 0.954829 171.111 1.19783H238.587H238.967H240.087H240.467H318.116H319.616V2.64813V77.8186V79.2689L319.616 79.6345V144.438C319.868 147.984 319.996 151.563 319.996 155.171ZM318.116 79.6345V131.432C315.145 112.867 308.744 95.3939 299.557 79.6345H318.116ZM318.116 144.489C316.436 121.018 309.265 99.0039 297.833 79.6345H240.466V154.805H318.116V144.489ZM318.116 77.8186H298.482C284.526 54.6195 264.485 35.2499 240.467 21.7422V2.64813H318.116V77.8186ZM296.744 77.8186C283.087 55.4023 263.675 36.6408 240.467 23.4228V77.8186H296.744ZM238.587 2.64813V20.7014C222.18 11.7599 203.974 5.53169 184.624 2.64813H238.587ZM238.587 22.3689C218.435 11.249 195.51 4.27398 171.059 2.64813H160.937V77.8186H238.587V22.3689ZM81.4084 2.64813H135.373C116.022 5.53178 97.8153 11.7603 81.4084 20.7021V2.64813ZM148.937 2.64813C124.486 4.27401 101.56 11.2494 81.4084 22.3697V77.8186H159.058V2.64813H148.937ZM79.5282 2.64768V21.7431C55.5106 35.2507 35.4703 54.6198 21.5147 77.8181H1.87898V2.64768H79.5282ZM79.5282 23.4238C56.3208 36.6417 36.9098 55.4026 23.2531 77.8181H79.5282V23.4238ZM1.87947 79.6345H20.439C11.2512 95.3963 4.84988 112.872 1.87947 131.44V79.6345ZM1.87947 156.621V165.834C3.58763 189.751 10.9986 212.156 22.8102 231.792H79.5287V156.621H1.87947ZM1.87947 231.792V178.901C4.91819 197.897 11.5474 215.749 21.0773 231.792H1.87947ZM1.87947 233.608H22.1733C36.0976 256.326 55.8862 275.302 79.5287 288.599V308.779H1.87947V233.608ZM81.4083 308.779V289.639C100.321 299.947 121.626 306.649 144.319 308.779H81.4083ZM81.4083 287.972C104.318 300.614 130.812 307.899 159.058 308.057V233.608H81.4083V287.972ZM238.587 308.779H175.678C198.37 306.65 219.674 299.948 238.587 289.64V308.779ZM160.938 308.057C189.183 307.899 215.678 300.614 238.587 287.973V233.608H160.938V308.057ZM240.466 308.779V288.6C264.109 275.303 283.899 256.326 297.823 233.608H318.116V308.779H240.466ZM240.466 286.919C263.299 273.915 282.457 255.545 296.076 233.608H240.466V286.919ZM240.466 231.792H297.186C308.995 212.161 316.405 189.763 318.116 165.852V156.621H240.466V231.792ZM318.116 178.909C315.076 197.902 308.448 215.751 298.919 231.792H318.116V178.909ZM23.9202 233.608C37.5387 255.545 56.6963 273.914 79.5287 286.918V233.608H23.9202ZM22.1638 79.6345C10.7283 99.009 3.55626 121.029 1.87947 144.508V154.805H79.5287V79.6345H22.1638ZM81.4083 79.6345H159.058V84.5841H125.027H119.387H99.0806V154.805H81.4083V79.6345ZM99.0806 156.621H81.4083V231.792H159.058V156.621H125.027V226.293H99.0806V156.621ZM125.027 154.805H159.058V109.656H125.027V154.805ZM160.938 84.5841H198.353H203.994H224.3V154.805H238.587V79.6345H160.938V84.5841ZM224.3 156.621H238.587V231.792H160.938V156.621H198.353V226.293H224.3V156.621ZM198.353 154.805V109.656H160.938V154.805H198.353Z" fill="white"/>
</svg>
